<svg width="149" height="116" viewBox="0 0 149 116" fill="none" xmlns="http://www.w3.org/2000/svg">
<path d="M72.6134 110.504C112.717 110.504 145.227 104.382 145.227 96.8293C145.227 89.2768 112.717 83.1543 72.6134 83.1543C32.5101 83.1543 0 89.2768 0 96.8293C0 104.382 32.5101 110.504 72.6134 110.504Z" fill="#C7A2E8"/>
<path opacity="0.3" d="M72.6134 110.504C112.717 110.504 145.227 104.382 145.227 96.8293C145.227 89.2768 112.717 83.1543 72.6134 83.1543C32.5101 83.1543 0 89.2768 0 96.8293C0 104.382 32.5101 110.504 72.6134 110.504Z" fill="white"/>
<path d="M135.599 6.75871C135.599 6.75871 131.891 9.83523 131.379 12.2043C130.867 14.5734 131.527 17.0947 131.963 18.5959C132.399 20.0972 132.471 27.3566 128.399 30.5894C124.326 33.8222 122.506 37.0592 122.942 41.0858C123.378 45.1124 128.907 49.5298 133.491 50.5457C138.075 51.5616 144.548 49.283 147.092 43.3644C149.637 37.4458 146.22 30.9185 144.328 27.2168C142.436 23.5151 142.584 20.0355 144.707 19.8792C146.831 19.7229 147.907 20.2905 147.983 17.0371C148.059 13.7837 147.327 8.75351 143.471 6.22813C139.615 3.70275 135.599 6.75871 135.599 6.75871Z" fill="#2E353A" stroke="#2E353A" stroke-width="0.412279" stroke-linecap="round" stroke-linejoin="round"/>
<path d="M126.469 46.4482C126.848 46.7238 130.261 48.2333 132.786 43.9804C135.311 39.7276 131.872 35.8079 132.536 32.0527" stroke="white" stroke-width="0.206139" stroke-miterlimit="10"/>
<path d="M139.748 11.6534C139.748 11.6534 138.565 7.5075 141.128 8.85245C143.877 10.292 146.057 17.0784 145.109 18.6208" stroke="white" stroke-width="0.206139" stroke-miterlimit="10"/>
<path d="M139.042 11.1145C139.042 11.1145 137.62 8.13259 138.568 6.79587C139.516 5.45914 141.696 7.00152 142.834 7.92694" stroke="white" stroke-width="0.206139" stroke-miterlimit="10"/>
<path d="M142.265 19.2383C142.265 19.2383 142.645 21.0891 141.507 24.7908C140.37 28.4925 138.284 32.7083 140.37 36.6157C142.455 40.523 144.067 43.1965 141.697 47.1038" stroke="white" stroke-width="0.206139" stroke-miterlimit="10"/>
<path d="M142.265 21.3965C142.348 23.8073 142.189 26.2206 141.791 28.5942C141.128 32.7072 143.213 35.3807 145.394 37.9513C147.574 40.5219 147.005 42.6812 146.247 45.0462" stroke="white" stroke-width="0.206139" stroke-miterlimit="10"/>
<path d="M138.948 11.7293C138.948 11.7293 134.492 12.1406 133.165 11.5237C131.838 10.9067 132.122 10.3926 132.122 10.3926" stroke="white" stroke-width="0.206139" stroke-miterlimit="10"/>
<path d="M139.539 28.1602C139.539 28.1602 140.119 34.5518 140.862 38.2493C141.605 41.9469 142.789 46.6152 142.493 47.9026C142.197 49.1899 135.667 60.1264 135.667 60.1264L133.741 58.6786L137.745 45.6486L134.374 33.433C134.374 33.433 137.461 28.5262 139.539 28.1602Z" fill="white" stroke="#2E353A" stroke-width="0.412279" stroke-linecap="round" stroke-linejoin="round"/>
<path d="M139.02 27.1183C138.072 25.9337 136.035 22.8572 136.035 22.8572L132.835 18.7442L128.399 12.1182C127.815 11.2503 125.851 11.5629 120.178 11.6452C114.505 11.7275 97.2867 8.17383 97.2867 8.17383L96.7065 12.2868C96.7065 12.2868 112.465 15.9885 116.466 16.3998C120.466 16.8111 124.178 17.3458 124.178 17.3458C123.632 18.5265 123.146 19.7389 122.722 20.9776C122.286 22.3966 117.194 29.9727 117.194 29.9727C117.194 29.9727 117.069 30.055 116.853 30.2113C116.796 31.585 116.917 34.5011 118.809 36.0394C120.273 37.228 122.415 37.7298 123.962 37.9396C123.989 37.845 124.011 37.7627 124.03 37.7051C124.25 37.0717 125.851 36.1258 126.723 36.0599C127.595 35.9941 130.287 36.1381 131.891 35.9818C133.495 35.8255 134.363 33.4564 134.363 33.4564C134.363 33.4564 137.897 29.7136 139.524 28.1836C139.423 27.7955 139.252 27.4333 139.02 27.1183Z" fill="white" stroke="#2E353A" stroke-width="0.412279" stroke-linecap="round" stroke-linejoin="round"/>
<path d="M126.192 18.2986L124.178 17.332L125.642 19.8574" stroke="#2E353A" stroke-width="0.309209" stroke-linecap="round" stroke-linejoin="round"/>
<path d="M121.115 32.6719C122.63 33.6917 124.423 34.1143 126.192 33.8688" stroke="#2E353A" stroke-width="0.309209" stroke-linecap="round" stroke-linejoin="round"/>
<path d="M119.442 29.7949C119.442 29.7949 119.772 31.2345 121.873 32.1928" stroke="#2E353A" stroke-width="0.309209" stroke-linecap="round" stroke-linejoin="round"/>
<path d="M137.734 45.6478C137.734 45.6478 139.111 45.0062 140.214 46.6843" stroke="#2E353A" stroke-width="0.309209" stroke-linecap="round" stroke-linejoin="round"/>
<path d="M138.117 34.4681L134.363 33.4316L137.674 36.2655" stroke="#2E353A" stroke-width="0.309209" stroke-linecap="round" stroke-linejoin="round"/>
<path d="M127.849 13.6429C127.849 13.6429 125.972 17.2336 123.765 17.1143C120.765 16.9498 112.279 14.2352 112.279 13.281C112.279 12.3268 114.6 11.9648 114.6 11.9648" stroke="#2E353A" stroke-width="0.309209" stroke-linecap="round" stroke-linejoin="round"/>
<path d="M134.363 16.6216C134.363 16.6216 132.846 16.2103 131.743 16.9383C130.64 17.6663 127.743 24.5145 127.743 24.5145C127.743 24.5145 127.959 24.8312 128.835 24.8312C129.711 24.8312 129.927 26.0938 129.927 27.2743C129.927 28.4547 129.851 29.01 130.215 28.9195C130.579 28.829 132.763 27.9735 133.199 28.2902C133.635 28.6069 132.615 30.1822 132.82 30.3467C133.025 30.5112 134.856 28.5287 135.44 26.3982C136.024 24.2677 136.604 21.113 136.456 19.8503C136.308 18.5876 135.368 16.9342 134.363 16.6216Z" fill="#C7A2E8" stroke="#2E353A" stroke-width="0.412279" stroke-linecap="round" stroke-linejoin="round"/>
<path d="M135.599 23.1723C134.798 24.1418 133.949 25.0631 133.055 25.9321C131.379 27.5773 129.999 28.7742 130.071 27.9886C130.143 27.203 131.815 22.9378 132.251 20.5852C132.687 18.2326 133.491 16.6367 134.363 16.6367C135.235 16.6367 137.127 21.4572 135.599 23.1723Z" fill="white" stroke="#2E353A" stroke-width="0.412279" stroke-linecap="round" stroke-linejoin="round"/>
<path d="M134.727 12.9951C134.785 13.1872 134.88 13.3639 135.006 13.5134C135.131 13.663 135.284 13.7821 135.455 13.863C135.963 14.0193 139.747 11.6543 139.747 11.6543C139.747 11.6543 142.44 17.8855 142 18.8315C141.56 19.7775 140.255 20.9661 138.799 22.0684C137.343 23.1707 134.655 24.0426 133.635 23.4092C132.615 22.7758 133.343 16.3102 133.343 16.3102C133.343 16.3102 132.543 15.282 133.415 13.6244C134.287 11.9669 134.727 12.9951 134.727 12.9951Z" fill="white" stroke="#2E353A" stroke-width="0.412279" stroke-linecap="round" stroke-linejoin="round"/>
<path d="M140.821 19.4309C140.821 19.4309 140.885 18.9414 140.043 18.9414C139.201 18.9414 137.723 20.6195 137.723 20.6195" stroke="#2E353A" stroke-width="0.309209" stroke-linecap="round" stroke-linejoin="round"/>
<path d="M137.143 20.759L136.691 20.2695" stroke="#2E353A" stroke-width="0.309209" stroke-linecap="round" stroke-linejoin="round"/>
<path d="M136.506 21.6736C136.506 21.6736 135.345 21.4639 135.152 19.8516" stroke="#2E353A" stroke-width="0.309209" stroke-linecap="round" stroke-linejoin="round"/>
<path d="M139.19 16.8908C139.19 16.8908 138.902 15.3567 137.673 15.0605" stroke="#2E353A" stroke-width="0.309209" stroke-linecap="round" stroke-linejoin="round"/>
<path d="M137.73 17.7108C137.434 17.9617 137.108 18.0439 136.998 17.8917C136.888 17.7396 137.036 17.4146 137.328 17.1637C137.62 16.9128 137.95 16.8306 138.06 16.9828C138.17 17.1349 138.022 17.4599 137.73 17.7108Z" fill="#2E353A"/>
<path d="M139.558 20.3027C139.315 20.5084 139.046 20.5783 138.955 20.4508C138.864 20.3233 138.985 20.0395 139.228 19.8462C139.471 19.6528 139.74 19.5747 139.831 19.6981C139.922 19.8215 139.801 20.0929 139.558 20.3027Z" fill="#2E353A"/>
<path d="M132.479 87.4613L136.198 93.0673C136.198 93.0673 136.198 94.0956 134.871 94.0956C133.544 94.0956 132.786 94.0956 132.027 93.0673C131.269 92.0391 131.269 91.4221 130.511 91.0108C129.752 90.5995 128.994 90.5995 129.373 88.3374C129.752 86.0752 132.479 87.4613 132.479 87.4613Z" fill="white" stroke="#2E353A" stroke-width="0.412279" stroke-linecap="round" stroke-linejoin="round"/>
<path d="M136.183 93.1921C135.594 93.499 134.933 93.6051 134.287 93.4965C132.945 93.2333 132.13 91.7773 131.633 91.1521C131.136 90.5269 130.53 90.531 129.957 90.0087C129.685 89.7562 129.447 89.4626 129.252 89.1367C129.172 90.6009 129.828 90.6503 130.48 91.0081C131.239 91.4194 131.239 92.0364 131.997 93.0646C132.755 94.0929 133.514 94.0929 134.841 94.0929C135.906 94.0929 136.126 93.4677 136.183 93.1921Z" fill="white" stroke="#2E353A" stroke-width="0.412279" stroke-linecap="round" stroke-linejoin="round"/>
<path d="M132.266 86.7469C131.508 84.2791 130.427 69.5052 129.866 64.8287C128.728 55.3195 123.67 42.9764 123.67 42.9764L123.962 37.9256C122.415 37.7158 120.273 37.214 118.809 36.0254C116.913 34.4871 116.795 31.571 116.852 30.1973C115.893 30.8677 113.061 32.8872 110.645 35.0095C107.665 37.613 105.625 46.8467 105.045 49.7628C104.464 52.6789 103.808 61.2792 103.808 61.2792C103.808 61.2792 98.5682 63.4879 96.4599 66.6261C94.3517 69.7643 87.9473 76.8839 87.9473 76.8839L88.5312 79.253C88.5312 79.253 90.4954 77.7559 92.1676 76.3328C93.8398 74.9097 106.865 67.0209 107.737 66.4616C108.609 65.9022 109.633 64.8164 110.793 61.6494C111.218 60.4936 111.817 58.6016 112.408 56.6644L114.429 49.8368L116.375 48.0394C118.293 53.666 122.752 64.512 123.386 66.0626C124.144 67.9217 124.72 76.1888 126.817 81.3588C128.914 86.5289 129.472 89.009 129.472 89.009C129.472 89.009 133.028 89.227 132.266 86.7469Z" fill="#2E353A" stroke="#2E353A" stroke-width="0.412279" stroke-linecap="round" stroke-linejoin="round"/>
<path d="M123.837 38.9023L124.561 43.4883" stroke="white" stroke-width="0.206139" stroke-miterlimit="10"/>
<path d="M21.3023 3.48047L10.3516 104.372C10.3367 104.518 10.3597 104.664 10.418 104.796C10.4763 104.928 10.5675 105.04 10.6812 105.118C10.795 105.196 10.9267 105.239 11.0615 105.24C11.1962 105.241 11.3286 105.201 11.4436 105.125L18.4812 100.428C18.8989 100.147 19.4009 100.053 19.8812 100.166C20.3615 100.279 20.7826 100.589 21.0559 101.033L29.8984 115.292L33.5879 55.3083L21.3023 3.48047Z" fill="#C7A2E8" stroke="#2E353A" stroke-width="0.412279" stroke-linecap="round" stroke-linejoin="round"/>
<path d="M21.2339 6.02025L11.3372 101.853C11.3158 102.06 11.3505 102.269 11.4371 102.455C11.5237 102.641 11.6584 102.795 11.8247 102.899C11.9909 103.003 12.1816 103.052 12.3731 103.04C12.5647 103.028 12.7489 102.956 12.9032 102.832L18.0487 98.719C18.3163 98.5043 18.6215 98.3511 18.9456 98.2688C19.2697 98.1865 19.6058 98.1769 19.9334 98.2404C20.2611 98.3039 20.5733 98.4393 20.8511 98.6383C21.1288 98.8373 21.3661 99.0957 21.5486 99.3976L27.57 109.368C27.6352 109.478 27.7328 109.562 27.8471 109.606C27.9615 109.649 28.086 109.65 28.2007 109.608C28.3155 109.566 28.414 109.483 28.4804 109.373C28.5469 109.263 28.5774 109.132 28.5672 109.001L21.5372 6.02436C21.5299 5.98689 21.511 5.95323 21.4838 5.92893C21.4565 5.90462 21.4224 5.89112 21.387 5.89064C21.3517 5.89016 21.3173 5.90274 21.2895 5.92629C21.2616 5.94985 21.242 5.98299 21.2339 6.02025Z" fill="#C7A2E8" stroke="#2E353A" stroke-width="0.412279" stroke-linecap="round" stroke-linejoin="round"/>
<path opacity="0.6" d="M21.3706 4.6279L11.3299 101.843C11.3085 102.05 11.3432 102.259 11.4298 102.444C11.5164 102.63 11.6511 102.784 11.8174 102.888C11.9836 102.992 12.1742 103.041 12.3658 103.03C12.5574 103.018 12.7416 102.945 12.8959 102.822L18.0414 98.7086C18.309 98.4939 18.6142 98.3407 18.9383 98.2585C19.2623 98.1762 19.5985 98.1665 19.9261 98.23C20.2538 98.2935 20.566 98.429 20.8437 98.6279C21.1215 98.8269 21.3588 99.0853 21.5413 99.3873L27.5627 109.357C27.6279 109.468 27.7255 109.552 27.8398 109.595C27.9541 109.639 28.0786 109.64 28.1934 109.598C28.3082 109.555 28.4067 109.473 28.4731 109.363C28.5395 109.253 28.5701 109.122 28.5599 108.991L21.4427 4.6279C21.4402 4.61967 21.4353 4.6125 21.4289 4.60742C21.4224 4.60234 21.4146 4.59961 21.4066 4.59961C21.3987 4.59961 21.3909 4.60234 21.3844 4.60742C21.3779 4.6125 21.3731 4.61967 21.3706 4.6279Z" fill="black"/>
<path d="M19.5391 98.1843C19.9374 98.1918 20.328 98.3048 20.677 98.5134C21.0259 98.722 21.3226 99.0199 21.5412 99.3812L27.5626 109.351C27.6278 109.462 27.7254 109.546 27.8397 109.589C27.954 109.633 28.0785 109.634 28.1933 109.592C28.3081 109.549 28.4066 109.467 28.473 109.357C28.5394 109.247 28.57 109.116 28.5598 108.985L27.6991 96.3828L19.4102 98.1432C19.4542 98.1525 19.4974 98.1663 19.5391 98.1843Z" fill="#C7A2E8" stroke="#2E353A" stroke-width="0.412279" stroke-linecap="round" stroke-linejoin="round"/>
<path opacity="0.3" d="M19.5391 98.1843C19.9374 98.1918 20.328 98.3048 20.677 98.5134C21.0259 98.722 21.3226 99.0199 21.5412 99.3812L27.5626 109.351C27.6278 109.462 27.7254 109.546 27.8397 109.589C27.954 109.633 28.0785 109.634 28.1933 109.592C28.3081 109.549 28.4066 109.467 28.473 109.357C28.5394 109.247 28.57 109.116 28.5598 108.985L27.6991 96.3828L19.4102 98.1432C19.4542 98.1525 19.4974 98.1663 19.5391 98.1843Z" fill="black"/>
<path d="M21.5261 3.41797L29.8947 115.291L127.477 95.1213L104.544 7.87234L21.5261 3.41797Z" fill="#2E353A" stroke="#2E353A" stroke-width="0.412279" stroke-linecap="round" stroke-linejoin="round"/>
<path d="M26.0498 5.83203L31.7982 109.377L123.56 91.2796L104.218 10.8334L26.0498 5.83203Z" fill="#C7A2E8" stroke="#2E353A" stroke-width="0.412279" stroke-linecap="round" stroke-linejoin="round"/>
<path d="M31.6577 56.7899L36.0221 105.87L119.397 89.4266L111.65 52.5371L31.6577 56.7899Z" fill="white" stroke="#2E353A" stroke-width="0.412279" stroke-linecap="round" stroke-linejoin="round"/>
<path d="M47.7502 103.427L46.3662 87.6621" stroke="#2E353A" stroke-width="0.412279" stroke-linecap="round" stroke-linejoin="round"/>
<path d="M60.5098 100.987L59.175 87.8457" stroke="#2E353A" stroke-width="0.412279" stroke-linecap="round" stroke-linejoin="round"/>
<path d="M73.0191 98.3585L71.4607 87.8457" stroke="#2E353A" stroke-width="0.412279" stroke-linecap="round" stroke-linejoin="round"/>
<path d="M85.9074 95.962L84.0532 83.4297" stroke="#2E353A" stroke-width="0.412279" stroke-linecap="round" stroke-linejoin="round"/>
<path d="M97.2599 93.7418L95.6787 81.5098" stroke="#2E353A" stroke-width="0.412279" stroke-linecap="round" stroke-linejoin="round"/>
<path d="M108.147 91.5557L105.792 76.8477" stroke="#2E353A" stroke-width="0.412279" stroke-linecap="round" stroke-linejoin="round"/>
<path d="M133.73 58.6777C133.73 58.6777 132.57 59.9445 132.494 60.6026C132.418 61.2607 133.025 63.2432 133.025 63.2432L134.852 63.5722L135.656 60.1255L133.73 58.6777Z" fill="white" stroke="#2E353A" stroke-width="0.412279" stroke-linecap="round" stroke-linejoin="round"/>
<g style="mix-blend-mode:multiply" opacity="0.49">
<path d="M26.5122 34.4395C26.5122 34.4395 28.4385 64.5096 30.2092 75.4748C31.98 86.4401 35.2637 102.851 35.2637 102.851C35.2637 102.851 92.1411 93.3006 120.201 80.4104L117.926 68.6226L26.5122 34.4395Z" fill="#C7A2E8"/>
</g>
<path d="M23.9414 4.70703L103.824 9.37528C103.824 9.37528 111.601 34.6496 119.34 48.9217C127.079 63.1938 139.842 62.2643 139.842 62.2643C139.842 62.2643 110.569 79.6253 87.7692 88.8672C64.0399 98.4792 43.4617 100.207 43.4617 100.207C43.4617 100.207 24.7187 72.4357 23.9414 4.70703Z" fill="#C7A2E8" stroke="#2E353A" stroke-width="0.412279" stroke-linecap="round" stroke-linejoin="round"/>
<path d="M33.0872 0.207031C31.6046 0.207031 30.5316 1.63424 30.1941 3.87171L31.7108 3.9622C31.9459 2.67072 32.4123 1.85223 33.0835 1.85223C33.8646 1.85223 34.7329 3.21363 34.7329 5.17142C34.7329 7.1292 33.8646 8.49472 33.0835 8.49472C32.8823 8.49472 32.6894 8.58138 32.5472 8.73565C32.405 8.88992 32.3251 9.09915 32.3251 9.31732C32.3251 9.53549 32.405 9.74472 32.5472 9.89898C32.6894 10.0533 32.8823 10.1399 33.0835 10.1399C34.858 10.1399 36.2496 7.95591 36.2496 5.17142C36.2496 2.38692 34.8618 0.207031 33.0872 0.207031Z" fill="white" stroke="#2E353A" stroke-width="0.412279" stroke-miterlimit="10"/>
<path d="M35.264 6.50195C35.1914 6.79202 35.0975 7.07534 34.9834 7.34923" stroke="#2E353A" stroke-width="0.309209" stroke-linecap="round" stroke-linejoin="round"/>
<path d="M30.9448 3.13032C30.9448 3.13032 31.5136 0.901081 33.1934 1.02447C34.5129 1.12318 35.6012 3.2496 35.4192 5.52408" stroke="#2E353A" stroke-width="0.309209" stroke-linecap="round" stroke-linejoin="round"/>
<path d="M46.2601 0.925781C44.7775 0.925781 43.7044 2.35299 43.3669 4.59046L44.8837 4.68095C45.1188 3.38947 45.5852 2.57098 46.2563 2.57098C47.0374 2.57098 47.9058 3.93238 47.9058 5.89017C47.9058 7.84795 47.0374 9.21347 46.2563 9.21347C46.0552 9.21347 45.8623 9.30013 45.7201 9.4544C45.5779 9.60867 45.498 9.8179 45.498 10.0361C45.498 10.2542 45.5779 10.4635 45.7201 10.6177C45.8623 10.772 46.0552 10.8587 46.2563 10.8587C48.0309 10.8587 49.4225 8.67466 49.4225 5.89017C49.4225 3.10567 48.0385 0.925781 46.2601 0.925781Z" fill="white" stroke="#2E353A" stroke-width="0.412279" stroke-miterlimit="10"/>
<path d="M48.4405 7.22266C48.3679 7.51272 48.2741 7.79604 48.1599 8.06993" stroke="#2E353A" stroke-width="0.309209" stroke-linecap="round" stroke-linejoin="round"/>
<path d="M44.1216 3.85103C44.1216 3.85103 44.6904 1.62178 46.3701 1.74517C47.6897 1.84389 48.7779 3.9703 48.5959 6.24479" stroke="#2E353A" stroke-width="0.309209" stroke-linecap="round" stroke-linejoin="round"/>
<path d="M59.4405 1.64648C57.9579 1.64648 56.8848 3.0737 56.5474 5.31117L58.0641 5.40165C58.2992 4.11017 58.7656 3.29168 59.4367 3.29168C60.2178 3.29168 61.0862 4.65308 61.0862 6.61087C61.0862 8.56866 60.2178 9.93417 59.4367 9.93417C59.2356 9.93417 59.0427 10.0208 58.9005 10.1751C58.7583 10.3294 58.6784 10.5386 58.6784 10.7568C58.6784 10.9749 58.7583 11.1842 58.9005 11.3384C59.0427 11.4927 59.2356 11.5794 59.4367 11.5794C61.2113 11.5794 62.6029 9.39537 62.6029 6.61087C62.6029 3.82637 61.2151 1.64648 59.4405 1.64648Z" fill="white" stroke="#2E353A" stroke-width="0.412279" stroke-miterlimit="10"/>
<path d="M61.617 7.94141C61.5444 8.23147 61.4506 8.51479 61.3364 8.78868" stroke="#2E353A" stroke-width="0.309209" stroke-linecap="round" stroke-linejoin="round"/>
<path d="M57.2981 4.56978C57.2981 4.56978 57.8669 2.34053 59.5466 2.46392C60.8662 2.56264 61.9545 4.68905 61.7724 6.96354" stroke="#2E353A" stroke-width="0.309209" stroke-linecap="round" stroke-linejoin="round"/>
<path d="M72.6168 2.36719C71.1342 2.36719 70.0611 3.7944 69.7236 6.03187L71.2404 6.12236C71.4755 4.83087 71.9418 4.01239 72.613 4.01239C73.3941 4.01239 74.2624 5.37379 74.2624 7.33157C74.2624 9.28936 73.3941 10.6549 72.613 10.6549C72.4119 10.6549 72.219 10.7415 72.0768 10.8958C71.9345 11.0501 71.8546 11.2593 71.8546 11.4775C71.8546 11.6956 71.9345 11.9049 72.0768 12.0591C72.219 12.2134 72.4119 12.3001 72.613 12.3001C74.3876 12.3001 75.7792 10.1161 75.7792 7.33157C75.7792 4.54707 74.3914 2.36719 72.6168 2.36719Z" fill="white" stroke="#2E353A" stroke-width="0.412279" stroke-miterlimit="10"/>
<path d="M74.7938 8.66211C74.7211 8.95217 74.6273 9.2355 74.5132 9.50939" stroke="#2E353A" stroke-width="0.309209" stroke-linecap="round" stroke-linejoin="round"/>
<path d="M70.4746 5.29048C70.4746 5.29048 71.0434 3.06124 72.7232 3.18463C74.0427 3.28334 75.131 5.40975 74.949 7.68424" stroke="#2E353A" stroke-width="0.309209" stroke-linecap="round" stroke-linejoin="round"/>
<path d="M86.0324 3.00391C84.5498 3.00391 83.4767 4.43112 83.1431 6.6727L84.6598 6.76319C84.8987 5.4717 85.3651 4.64911 86.0324 4.64911C86.8136 4.64911 87.6857 6.01462 87.6857 7.97241C87.6857 9.93019 86.8136 11.2916 86.0324 11.2916C85.8313 11.2916 85.6384 11.3783 85.4962 11.5325C85.354 11.6868 85.2741 11.896 85.2741 12.1142C85.2741 12.3324 85.354 12.5416 85.4962 12.6959C85.6384 12.8501 85.8313 12.9368 86.0324 12.9368C87.8108 12.9368 89.2024 10.7569 89.2024 7.97241C89.2024 5.18791 87.8108 3.00391 86.0324 3.00391Z" fill="white" stroke="#2E353A" stroke-width="0.412279" stroke-miterlimit="10"/>
<path d="M88.2091 9.30469C88.137 9.59362 88.0432 9.87563 87.9285 10.1479" stroke="#2E353A" stroke-width="0.309209" stroke-linecap="round" stroke-linejoin="round"/>
<path d="M83.8901 5.93131C83.8901 5.93131 84.4627 3.69795 86.1387 3.82134C87.462 3.92005 88.5465 6.05059 88.3683 8.32507" stroke="#2E353A" stroke-width="0.309209" stroke-linecap="round" stroke-linejoin="round"/>
<path d="M98.9209 3.77344C97.4383 3.77344 96.3652 5.20065 96.0315 7.43812L97.5482 7.53272C97.7871 6.24124 98.2535 5.41864 98.9209 5.41864C99.702 5.41864 100.574 6.78415 100.574 8.73783C100.574 10.6915 99.702 12.0611 98.9209 12.0611C98.7197 12.0611 98.5268 12.1478 98.3846 12.3021C98.2424 12.4563 98.1625 12.6656 98.1625 12.8837C98.1625 13.1019 98.2424 13.3111 98.3846 13.4654C98.5268 13.6197 98.7197 13.7063 98.9209 13.7063C100.699 13.7063 102.091 11.5223 102.091 8.73783C102.091 5.95333 100.699 3.77344 98.9209 3.77344Z" fill="white" stroke="#2E353A" stroke-width="0.412279" stroke-miterlimit="10"/>
<path d="M101.097 10.0488C101.026 10.3393 100.932 10.6227 100.817 10.8961" stroke="#2E353A" stroke-width="0.309209" stroke-linecap="round" stroke-linejoin="round"/>
<path d="M96.7783 6.68131C96.7783 6.68131 97.3509 4.44795 99.0269 4.57134C100.35 4.67005 101.435 6.79647 101.256 9.07096" stroke="#2E353A" stroke-width="0.309209" stroke-linecap="round" stroke-linejoin="round"/>
<path d="M135.656 60.1199C135.656 60.1199 136.415 61.2469 136.415 61.7281C136.415 62.2093 135.376 63.0154 135.376 64.1383C135.376 65.2611 134.041 64.9609 133.893 64.1383C133.745 63.3157 134.189 62.2093 134.189 62.2093C134.189 62.2093 133.571 61.798 133.43 60.3502C133.29 58.9025 134.492 59.3138 134.492 59.3138L135.656 60.1199Z" fill="white" stroke="#2E353A" stroke-width="0.412279" stroke-linecap="round" stroke-linejoin="round"/>
<path d="M116.697 48.9864C111.203 38.852 105.431 22.8483 103.38 16.9585L31.9913 13.8203C31.9458 71.0527 47.917 94.6983 47.917 94.6983C47.917 94.6983 66.0988 93.1724 87.0676 84.6749C107.217 76.5106 131.25 62.8061 131.25 62.8061C131.25 62.8061 123.534 61.601 116.697 48.9864Z" fill="white" stroke="#2E353A" stroke-width="0.412279" stroke-linecap="round" stroke-linejoin="round"/>
<path d="M103.38 16.9585L31.9912 13.8203C31.9912 19.451 32.1391 24.7486 32.4121 29.7376L107.801 28.9726C105.848 23.926 104.275 19.5045 103.38 16.9585Z" fill="#2E353A" stroke="#2E353A" stroke-width="0.412279" stroke-linecap="round" stroke-linejoin="round"/>
<path d="M104.643 34.0201L108.017 33.8926" stroke="#2E353A" stroke-width="1.23684" stroke-linecap="round" stroke-linejoin="round"/>
<path d="M94.7234 34.3849L102.114 34.1094" stroke="#2E353A" stroke-width="1.23684" stroke-linecap="round" stroke-linejoin="round"/>
<path d="M82.7148 34.8262L92.2134 34.4766" stroke="#2E353A" stroke-width="1.23684" stroke-linecap="round" stroke-linejoin="round"/>
<path d="M70.4973 35.2725L80.6177 34.9023" stroke="#2E353A" stroke-width="1.23684" stroke-linecap="round" stroke-linejoin="round"/>
<path d="M58.686 35.7125L67.9646 35.3711" stroke="#2E353A" stroke-width="1.23684" stroke-linecap="round" stroke-linejoin="round"/>
<path d="M46.2412 36.1717L55.5274 35.8262" stroke="#2E353A" stroke-width="1.23684" stroke-linecap="round" stroke-linejoin="round"/>
<path d="M35.2866 36.5747L43.9282 36.2539" stroke="#2E353A" stroke-width="1.23684" stroke-linecap="round" stroke-linejoin="round"/>
<path d="M33.8799 45.3976L112.42 40.207" stroke="#2E353A" stroke-width="0.412279" stroke-linecap="round" stroke-linejoin="round"/>
<path d="M46.2905 44.6621C46.2905 44.6621 47.5797 67.3165 61.3479 92.4634" stroke="#2E353A" stroke-width="0.412279" stroke-linecap="round" stroke-linejoin="round"/>
<path d="M58.9629 43.7539C58.9629 43.7539 60.4152 69.6658 75.5104 88.639" stroke="#2E353A" stroke-width="0.412279" stroke-linecap="round" stroke-linejoin="round"/>
<path d="M70.437 42.9902C70.437 42.9902 71.1954 66.8456 88.1638 83.9886" stroke="#2E353A" stroke-width="0.412279" stroke-linecap="round" stroke-linejoin="round"/>
<path d="M82.3315 42.4355C82.3315 42.4355 84.2047 68.9561 100.627 78.2968" stroke="#2E353A" stroke-width="0.412279" stroke-linecap="round" stroke-linejoin="round"/>
<path d="M94.7954 41.3672C94.7954 41.3672 96.115 61.4263 112.913 72.4121" stroke="#2E353A" stroke-width="0.412279" stroke-linecap="round" stroke-linejoin="round"/>
<path d="M104.609 40.7188C104.609 40.7188 109.129 61.2837 121.774 67.9427" stroke="#2E353A" stroke-width="0.412279" stroke-linecap="round" stroke-linejoin="round"/>
<path d="M35.6011 57.0807L115.821 47.5098" stroke="#2E353A" stroke-width="0.412279" stroke-linecap="round" stroke-linejoin="round"/>
<path d="M37.6943 67.3198C37.6943 67.3198 54.822 66.5918 119.552 53.6523" stroke="#2E353A" stroke-width="0.412279" stroke-linecap="round" stroke-linejoin="round"/>
<path d="M40.7163 78.1545C40.7163 78.1545 57.4003 80.211 122.764 57.6348" stroke="#2E353A" stroke-width="0.412279" stroke-linecap="round" stroke-linejoin="round"/>
<path d="M44.3262 87.6134C44.3262 87.6134 58.2346 92.6107 126.556 60.8789" stroke="#2E353A" stroke-width="0.412279" stroke-linecap="round" stroke-linejoin="round"/>
<path d="M62.8267 25.0158L37.1106 24.6416C36.9022 24.6382 36.7021 24.553 36.5473 24.4017C36.3925 24.2504 36.2935 24.0434 36.2688 23.819L36.0488 21.565C36.0359 21.4353 36.0486 21.3041 36.0859 21.1801C36.1233 21.0561 36.1845 20.9421 36.2655 20.8457C36.3465 20.7492 36.4455 20.6726 36.5559 20.6207C36.6663 20.5689 36.7855 20.5431 36.9058 20.545L62.311 21.0221C62.4988 21.0257 62.6802 21.0961 62.8275 21.2224C62.9748 21.3487 63.0798 21.524 63.1263 21.7213L63.642 23.8642C63.6742 23.9997 63.6776 24.1414 63.6518 24.2786C63.6261 24.4157 63.5718 24.5447 63.4932 24.6557C63.4147 24.7667 63.3138 24.8568 63.1983 24.9192C63.0828 24.9816 62.9557 25.0147 62.8267 25.0158Z" fill="white"/>
</svg>
